<?xml version="1.0" standalone="no"?>
<!DOCTYPE svg PUBLIC "-//W3C//DTD SVG 20010904//EN"
 "http://www.w3.org/TR/2001/REC-SVG-20010904/DTD/svg10.dtd">
<svg version="1.0" xmlns="http://www.w3.org/2000/svg"
 width="902.000000pt" height="979.000000pt" viewBox="0 0 902.000000 979.000000"
 preserveAspectRatio="xMidYMid meet">

<g transform="translate(0.000000,979.000000) scale(0.100000,-0.100000)"
fill="#000000" stroke="none">
<path d="M0 4895 l0 -4895 4510 0 4510 0 0 1593 c-1 1373 -3 1589 -15 1573
-21 -27 -66 -49 -78 -37 -12 12 35 61 59 61 20 0 18 26 -3 35 -10 3 -37 8 -61
11 -40 4 -43 2 -40 -19 3 -19 -1 -22 -27 -19 -16 2 -34 7 -40 12 -5 4 -22 10
-37 14 -32 7 -38 36 -8 36 11 0 20 5 20 10 0 13 -3 13 -34 -1 -14 -7 -26 -19
-28 -27 -2 -12 -9 -10 -33 11 -23 20 -27 28 -18 38 18 18 79 21 131 6 44 -13
142 -10 157 5 3 3 -21 8 -54 12 -33 4 -63 11 -66 15 -8 15 54 31 116 31 l59 0
0 191 c0 171 -2 193 -17 205 -10 7 -26 14 -36 14 -11 0 -17 6 -14 13 2 6 18
11 36 11 24 -2 31 2 31 17 0 12 -7 19 -19 19 -26 0 -51 10 -51 21 0 5 11 9 25
9 45 0 63 67 18 68 -40 1 -93 13 -93 21 0 15 14 20 26 10 8 -7 29 -8 54 -4
l40 7 0 169 c0 106 -4 169 -10 169 -5 0 -10 7 -10 15 0 8 5 15 10 15 7 0 10
917 10 2730 l0 2730 -4510 0 -4510 0 0 -4895z m4656 3537 c6 -4 13 -15 17 -24
4 -10 16 -17 29 -17 13 1 34 -2 48 -6 14 -3 34 -7 45 -8 14 -1 29 -20 47 -59
15 -31 41 -67 57 -79 24 -18 29 -28 25 -46 -4 -15 0 -30 9 -41 56 -62 -82
-216 -213 -238 -19 -3 -46 -11 -59 -17 -47 -23 -147 -11 -267 33 -11 4 -29 3
-39 -2 -16 -10 -17 -7 -11 30 6 38 34 136 73 257 26 78 77 182 97 197 5 3 25
4 44 1 26 -5 37 -2 44 10 9 18 35 22 54 9z m-402 -386 c-3 -9 -10 -16 -15 -16
-6 0 -5 9 1 21 13 24 24 20 14 -5z m761 -38 c-3 -13 -8 -33 -10 -45 -2 -13
-13 -38 -24 -57 -12 -18 -21 -45 -21 -58 0 -17 -11 -33 -32 -49 -36 -27 -128
-119 -128 -129 0 -3 -15 -11 -34 -18 -30 -11 -35 -18 -41 -58 -3 -25 -13 -48
-21 -51 -20 -8 -18 -43 4 -44 16 -1 16 -2 0 -6 -25 -6 -30 -36 -21 -117 13
-114 68 -121 68 -8 l0 57 47 1 c26 1 53 6 60 11 7 6 32 13 55 17 l41 6 0 -34
c0 -18 5 -42 10 -53 6 -11 8 -29 5 -41 -4 -19 -1 -22 21 -22 17 0 25 -4 21
-11 -4 -6 -13 -8 -21 -5 -8 3 -14 1 -14 -4 0 -5 -16 -17 -35 -26 -39 -18 -42
-26 -19 -48 19 -20 41 -20 74 -1 31 18 92 19 108 3 17 -17 15 -65 -5 -95 -10
-14 -16 -39 -14 -56 4 -41 -18 -87 -47 -98 -15 -6 -22 -15 -19 -24 3 -7 -3
-25 -14 -38 -10 -14 -19 -28 -19 -32 0 -4 -10 -21 -22 -38 -13 -18 -22 -34
-21 -37 2 -3 -3 -5 -10 -5 -22 -1 -36 -15 -56 -59 -19 -44 -90 -126 -109 -126
-5 0 -13 -7 -16 -15 -3 -9 -31 -27 -61 -41 -30 -14 -55 -31 -55 -38 0 -7 -11
-18 -25 -24 -14 -6 -25 -20 -25 -29 0 -19 -33 -53 -85 -91 -23 -16 -47 -22
-100 -23 -82 -3 -154 8 -175 26 -8 7 -33 18 -55 25 -74 23 -118 50 -106 64 8
9 5 18 -12 33 -12 11 -31 33 -42 49 -11 15 -30 37 -42 48 -13 11 -23 27 -23
36 0 21 -49 80 -66 80 -8 0 -14 10 -14 24 0 13 -7 27 -15 30 -9 3 -21 19 -26
36 -6 16 -15 30 -20 30 -5 0 -9 17 -9 38 0 27 -6 41 -21 50 -12 8 -18 19 -15
29 3 8 3 20 0 25 -4 6 -8 25 -9 42 -2 17 -5 44 -8 60 -2 16 0 45 5 64 7 25 6
42 -3 58 -9 18 -10 38 -2 81 7 37 7 62 1 70 -6 7 -6 18 0 30 23 45 36 92 39
148 4 50 9 64 31 82 15 11 27 27 27 34 0 7 18 26 40 41 22 16 49 35 60 43 18
13 28 12 75 0 30 -8 66 -15 79 -15 13 0 49 -9 80 -19 31 -11 68 -22 83 -25 15
-3 33 -12 40 -19 17 -17 78 -30 148 -31 l55 -1 3 36 c2 28 -1 38 -15 42 -10 4
-40 22 -67 42 -46 34 -79 42 -146 37 -14 -1 -36 0 -49 4 -23 5 -22 7 30 54 30
27 59 50 64 50 6 0 28 -9 50 -19 71 -32 153 -54 182 -48 100 20 140 30 154 38
9 5 40 9 68 10 47 2 54 6 94 48 48 52 128 121 141 121 4 0 5 -10 1 -22z m-895
-158 c0 -5 -5 -10 -11 -10 -5 0 -7 5 -4 10 3 6 8 10 11 10 2 0 4 -4 4 -10z
m-740 -90 c0 -16 -4 -32 -10 -35 -6 -4 -10 10 -10 35 0 25 4 39 10 35 6 -3 10
-19 10 -35z m90 -54 c0 -16 41 -29 63 -20 22 8 29 -24 11 -52 -17 -25 -23 -27
-61 -24 -15 1 -23 -4 -23 -14 0 -18 -34 -39 -45 -28 -5 4 -5 -2 -1 -13 5 -13
4 -17 -3 -10 -5 6 -12 43 -15 83 -6 69 -5 73 16 82 34 13 58 12 58 -4z m1379
-63 c-1 -21 -87 -70 -88 -50 -1 4 2 7 7 8 14 1 32 21 27 29 -5 7 4 11 48 19 4
0 7 -2 6 -6z m-1276 -158 c-3 -8 0 -15 6 -15 6 0 11 5 11 10 0 6 4 10 9 10 15
0 23 -38 13 -56 -5 -8 -6 -35 -2 -59 9 -59 2 -67 -48 -59 -109 17 -125 126
-27 176 34 17 47 14 38 -7z m22 -425 c20 -8 26 -16 22 -30 -3 -12 7 -32 28
-56 18 -20 38 -54 45 -77 6 -22 24 -58 38 -80 15 -22 35 -52 44 -66 21 -31 24
-37 37 -73 6 -16 17 -28 26 -28 8 0 17 -11 21 -24 3 -14 14 -32 25 -42 10 -9
19 -25 19 -34 0 -28 59 -111 78 -109 34 3 44 -1 38 -16 -3 -9 3 -19 14 -25 11
-6 20 -15 20 -21 0 -5 12 -21 26 -34 25 -23 25 -25 7 -25 -14 0 -22 -9 -26
-27 -4 -16 -26 -49 -49 -74 -24 -26 -65 -74 -93 -108 -27 -33 -56 -61 -62 -61
-7 0 -13 -4 -13 -10 0 -5 -7 -10 -15 -10 -8 0 -17 -11 -21 -25 -7 -27 -15 -29
-116 -25 -38 1 -58 -2 -58 -9 0 -25 55 -119 99 -171 26 -30 76 -103 111 -162
35 -60 74 -115 87 -123 18 -12 22 -22 18 -46 -7 -38 7 -43 81 -30 66 13 84 4
76 -37 -7 -41 -18 -49 -72 -56 -28 -4 -50 -12 -50 -18 0 -5 7 -31 15 -57 8
-25 18 -81 21 -124 3 -42 10 -75 14 -72 14 8 30 -29 20 -45 -5 -8 -5 -21 -1
-29 13 -25 22 -123 10 -116 -5 4 -7 10 -4 15 3 5 -8 8 -25 8 -36 -1 -42 3 -30
22 7 11 11 11 24 1 13 -11 16 -11 16 0 0 8 3 24 6 37 5 16 2 22 -10 22 -9 0
-16 -7 -16 -15 0 -27 -40 -17 -51 13 -18 44 -44 103 -73 167 -16 33 -30 66
-32 75 -2 8 -12 46 -21 85 -10 38 -25 77 -34 86 -9 9 -19 33 -23 54 -7 37 -29
75 -72 125 -12 14 -25 36 -29 50 -4 13 -13 29 -19 36 -6 6 -27 31 -46 55 -19
24 -47 55 -61 69 -14 14 -29 35 -33 47 -4 12 -15 25 -25 28 -10 3 -23 17 -29
30 -16 34 -43 31 -67 -8 -29 -45 -52 -46 -70 -3 -8 19 -15 46 -15 60 0 14 -9
30 -22 38 -16 11 -33 46 -57 121 -49 155 -60 165 -61 50 0 -70 5 -102 20 -138
25 -58 25 -70 0 -105 -23 -33 -32 -106 -12 -103 6 2 12 -2 12 -7 0 -6 -4 -10
-8 -10 -29 0 -82 -201 -65 -247 8 -22 199 -203 215 -203 4 0 27 -18 50 -41 23
-22 56 -48 73 -56 16 -9 32 -19 35 -24 6 -9 51 -42 125 -92 28 -18 72 -52 98
-75 27 -23 53 -40 58 -36 11 7 69 -46 69 -63 0 -7 7 -13 15 -13 8 0 15 5 15
10 0 16 22 12 60 -11 34 -21 34 -22 12 -30 -12 -5 -22 -17 -22 -28 0 -11 -13
-27 -30 -38 -16 -9 -30 -21 -30 -25 0 -4 -5 -7 -12 -6 -7 2 -12 -14 -15 -41
-3 -46 -13 -70 -13 -33 0 13 -6 22 -15 22 -13 0 -14 -4 -4 -22 14 -26 5 -134
-15 -181 -8 -18 -29 -70 -47 -117 -52 -132 -70 -155 -148 -184 -100 -38 -164
-49 -260 -43 -113 7 -229 25 -261 41 -14 8 -43 16 -65 20 -117 21 -177 40
-192 63 -12 18 -13 26 -4 37 13 16 -2 32 -19 21 -22 -14 -28 7 -13 42 17 41
14 140 -4 151 -6 4 -12 30 -13 57 -7 214 -3 240 26 201 13 -18 14 -16 14 26 0
46 -13 70 -24 46 -3 -7 -4 3 -1 22 7 46 6 128 -1 216 -5 58 -3 72 9 77 12 5
15 18 11 66 -4 50 -2 61 11 61 8 0 15 6 15 13 0 36 178 211 205 201 10 -4 14
10 18 58 8 113 7 152 -5 159 -8 5 -8 15 1 37 7 17 13 52 13 79 0 31 8 66 24
98 46 97 54 205 29 391 -19 137 -32 188 -56 210 -11 9 -19 25 -19 34 0 28 -95
116 -156 145 -69 32 -167 48 -280 43 -80 -3 -103 3 -68 16 9 4 56 9 104 13
104 7 219 -15 275 -53 20 -13 37 -24 39 -24 14 0 126 -84 126 -94 0 -19 28
-72 45 -86 8 -7 15 -23 15 -36 0 -29 17 -104 38 -163 14 -41 16 -43 28 -26 8
10 14 29 14 41 0 13 7 49 16 81 23 81 33 180 23 216 -6 20 -4 40 6 62 7 19 11
35 9 38 -3 2 1 16 7 31 9 19 17 24 34 20 11 -3 29 -6 38 -8 10 -1 21 -6 25
-12 14 -15 43 -227 36 -262 -4 -21 -3 -32 5 -32 15 0 31 42 31 80 0 16 7 35
14 43 10 9 15 33 14 66 -1 41 3 56 22 76 27 28 22 42 -9 25 -17 -9 -21 -8 -21
4 0 8 7 21 15 28 41 34 45 40 39 63 -4 18 1 31 21 50 16 14 32 25 38 25 6 0 3
8 -6 18 -16 17 -23 42 -13 42 3 0 17 -5 31 -10z m-245 -112 c0 -19 -2 -20 -10
-8 -13 19 -13 30 0 30 6 0 10 -10 10 -22z m-869 -132 c-7 -8 -26 -18 -42 -21
-16 -4 -35 -15 -42 -25 -6 -9 -51 -38 -98 -62 -47 -24 -96 -52 -110 -61 -29
-21 -49 -22 -49 -2 0 8 6 15 14 15 7 0 32 20 55 45 23 25 47 45 54 45 7 0 22
7 33 15 10 8 27 15 37 15 9 0 17 4 17 9 0 9 56 25 82 22 9 -1 19 3 23 9 3 5
13 10 22 10 12 0 13 -3 4 -14z m172 -266 c35 -11 75 -28 88 -39 34 -26 130
-46 141 -29 6 10 8 9 8 -4 0 -9 -5 -20 -11 -23 -13 -9 -6 -84 11 -116 l13 -23
8 22 c5 14 14 20 23 16 12 -4 13 -11 6 -24 -6 -11 -5 -28 2 -47 6 -17 8 -39 4
-49 -7 -19 -8 -19 -18 0 -8 15 -12 16 -19 5 -15 -25 -10 -86 10 -110 16 -20
17 -26 6 -39 -21 -24 -55 -118 -49 -135 4 -8 1 -15 -4 -15 -6 0 -19 -16 -28
-35 -9 -19 -20 -35 -24 -35 -4 0 -13 -15 -21 -32 -7 -18 -23 -43 -36 -55 -13
-12 -23 -34 -23 -48 0 -14 -4 -25 -10 -25 -5 0 -10 -6 -10 -13 0 -7 -9 -32
-20 -55 -11 -22 -20 -51 -20 -62 0 -13 -8 -24 -19 -27 -10 -2 -24 -16 -31 -29
-8 -13 -19 -24 -26 -24 -8 0 -20 -13 -29 -30 -9 -16 -20 -30 -26 -30 -5 0 -21
-11 -34 -24 -13 -13 -40 -29 -60 -36 -19 -6 -35 -16 -35 -21 0 -5 -11 -14 -25
-19 -21 -8 -36 -2 -102 41 -43 28 -89 59 -103 70 -14 10 -62 44 -106 74 -147
101 -363 299 -364 335 0 9 -9 23 -20 33 -21 18 -27 47 -10 47 6 0 11 8 11 18
1 16 2 16 6 0 2 -10 11 -18 19 -18 17 0 19 -20 2 -21 -10 0 -10 -2 0 -6 19 -7
62 36 62 62 0 27 36 66 54 59 15 -6 46 42 46 70 0 9 14 23 31 31 19 10 29 22
25 31 -5 14 56 84 74 84 6 0 10 7 10 15 0 8 5 15 12 15 19 0 48 31 48 52 0 10
6 18 13 18 7 0 29 14 47 30 18 17 39 30 46 30 15 0 26 28 14 35 -6 4 -10 13
-10 21 0 12 10 15 46 13 39 -3 47 0 57 21 10 21 20 25 54 25 23 0 45 4 49 8 4
4 15 7 25 7 9 0 30 7 45 15 40 20 100 19 177 -5z m1412 -440 c3 -11 7 -98 8
-193 1 -149 -1 -178 -16 -200 -9 -15 -17 -37 -18 -49 0 -13 -6 -3 -14 25 -7
26 -12 69 -10 95 1 26 6 103 9 172 8 141 12 170 26 170 5 0 11 -9 15 -20z
m-2288 -142 c-3 -7 -5 -2 -5 12 0 14 2 19 5 13 2 -7 2 -19 0 -25z m6453 -218
c17 -9 19 -23 18 -130 0 -141 0 -140 -100 -140 -94 0 -99 6 -100 125 -2 126 6
143 70 148 26 2 57 4 70 5 13 1 32 -2 42 -8z m-4218 -180 c7 -11 16 -20 20
-20 5 0 8 9 8 20 0 26 36 27 52 1 6 -10 18 -17 25 -14 16 6 16 2 3 -31 -5 -14
-14 -26 -20 -26 -6 0 -9 4 -6 9 9 14 -18 31 -42 24 -24 -6 -28 -18 -11 -28 7
-5 4 -14 -7 -26 -13 -14 -20 -16 -31 -8 -7 6 -13 18 -13 25 0 8 -5 14 -10 14
-6 0 -15 12 -20 26 -18 46 27 75 52 34z m-1222 -50 c0 -27 5 -52 10 -55 15 -9
12 -45 -4 -45 -8 0 -17 6 -20 13 -3 6 -4 -1 -3 -18 2 -29 -18 -65 -36 -65 -4
0 -19 -11 -33 -24 -39 -36 -187 -46 -166 -11 10 17 97 118 151 174 24 25 52
56 64 68 28 30 37 21 37 -37z m4780 -970 c0 -5 -4 -10 -10 -10 -5 0 -10 5 -10
10 0 6 5 10 10 10 6 0 10 -4 10 -10z m-3296 -125 c15 -33 36 -78 46 -100 10
-22 22 -62 25 -90 4 -27 16 -70 26 -95 17 -40 31 -94 59 -225 4 -22 11 -97 15
-167 4 -71 10 -128 14 -128 10 0 57 47 229 228 85 89 160 162 168 162 27 0 27
-31 0 -59 -31 -33 -33 -47 -5 -54 22 -6 19 -8 220 145 63 48 147 112 187 142
88 68 109 79 128 72 36 -14 -7 -65 -131 -156 -33 -24 -65 -49 -71 -54 -6 -6
-26 -22 -44 -36 -121 -90 -130 -100 -124 -125 4 -18 -1 -33 -22 -57 -26 -32
-26 -33 -6 -36 12 -2 27 -16 34 -33 7 -16 16 -29 19 -29 4 0 41 23 83 50 42
28 80 50 85 50 15 0 30 -25 22 -38 -7 -11 -102 -79 -281 -199 -151 -102 -180
-125 -180 -150 0 -15 -9 -27 -25 -35 -14 -6 -25 -15 -25 -20 0 -4 -5 -8 -10
-8 -6 0 -20 -9 -32 -20 -12 -11 -30 -20 -40 -20 -22 0 -68 -28 -68 -41 0 -5
12 -6 28 -3 26 6 39 11 128 49 23 9 50 15 60 13 18 -3 -9 -19 -111 -63 -16 -7
-70 -31 -120 -53 -49 -21 -105 -45 -124 -52 -59 -24 -91 -57 -91 -98 -1 -52
-16 -113 -32 -123 -7 -5 -30 -9 -51 -9 -30 0 -40 5 -49 25 -9 21 -8 28 7 45
27 29 -2 26 -40 -5 -26 -22 -28 -27 -17 -45 15 -25 16 -60 0 -60 -6 0 -27 -18
-47 -41 -35 -38 -40 -40 -100 -43 -38 -1 -69 3 -79 11 -42 31 -58 -3 -21 -43
24 -26 21 -58 -8 -92 -18 -20 -19 -20 -69 -3 -28 9 -55 16 -61 14 -7 -3 -9
-20 -6 -44 8 -56 -17 -83 -71 -76 -21 3 -42 11 -47 18 -4 8 -11 10 -14 7 -4
-4 0 -17 9 -30 23 -33 20 -57 -11 -71 -44 -19 -54 -37 -48 -84 5 -36 3 -43
-15 -53 -12 -7 -33 -9 -47 -5 -20 5 -34 -2 -69 -35 -49 -45 -59 -48 -74 -20
-6 11 -8 20 -5 20 4 0 3 5 0 10 -4 7 -11 8 -18 1 -19 -15 -69 -16 -104 -2 -38
15 -42 38 -16 77 16 25 16 27 -8 44 -22 17 -23 21 -12 51 11 27 10 37 -2 56
-9 13 -19 23 -23 23 -15 0 -34 141 -27 201 8 64 16 77 35 54 9 -10 11 -35 7
-74 -7 -79 27 -201 55 -201 12 0 10 24 -3 37 -6 6 -15 29 -19 50 -4 21 -11 52
-15 69 -5 20 -2 35 7 45 26 27 47 67 53 102 4 20 10 36 14 35 3 -1 15 3 27 9
17 10 23 8 37 -8 9 -10 17 -25 17 -32 0 -27 66 -117 95 -128 17 -7 34 -15 39
-17 5 -3 6 2 4 9 -6 17 50 69 74 69 10 0 24 14 33 30 9 17 21 30 29 30 20 0
76 30 76 41 0 5 5 9 11 9 6 0 9 -7 5 -15 -3 -9 0 -15 9 -15 8 0 15 -7 15 -15
0 -8 6 -15 13 -15 17 0 40 182 24 192 -17 10 -2 21 33 23 17 2 38 -4 46 -12
18 -18 129 -42 158 -35 12 3 27 12 34 19 16 15 36 18 27 3 -3 -5 -1 -10 4 -10
6 0 11 15 10 33 0 17 -3 26 -6 20 -2 -7 -11 -13 -19 -13 -7 0 -11 6 -8 13 2 7
-11 28 -30 47 -39 39 -44 50 -20 50 16 0 162 124 203 173 28 33 27 27 36 262
5 122 2 216 -9 335 -9 91 -16 190 -16 221 0 30 -4 59 -9 65 -5 5 -12 38 -16
74 -4 35 -11 76 -17 90 -5 14 -11 44 -13 67 l-3 42 27 -27 c15 -15 40 -54 55
-87z m3796 99 c0 -8 -4 -12 -10 -9 -5 3 -10 10 -10 16 0 5 5 9 10 9 6 0 10 -7
10 -16z m-351 -69 c-8 -8 -29 -17 -47 -21 -26 -5 -32 -3 -32 11 0 13 6 15 28
10 20 -4 33 -1 42 10 7 8 15 13 18 10 3 -3 -1 -12 -9 -20z m441 5 c13 -9 11
-13 -10 -30 -14 -10 -38 -20 -55 -22 -37 -4 -150 14 -161 25 -27 27 107 38
136 12 15 -14 19 -13 35 5 20 22 33 24 55 10z m200 0 c0 -5 -4 -10 -9 -10 -6
0 -13 5 -16 10 -3 6 1 10 9 10 9 0 16 -4 16 -10z m-529 -10 c26 -14 24 -32 -3
-28 -13 2 -24 11 -26 21 -4 20 2 21 29 7z m-363 -12 c7 -7 12 -16 12 -20 0
-11 -32 -10 -50 2 -13 9 -13 11 0 20 19 13 24 12 38 -2z m99 -2 c4 -7 18 -18
31 -25 12 -6 22 -16 22 -21 0 -11 -79 -14 -104 -4 -16 6 -22 45 -9 57 11 12
52 7 60 -7z m-207 -10 c0 -7 9 -16 20 -19 25 -6 16 -37 -10 -37 -57 0 -90 38
-52 59 24 15 42 13 42 -3z m-176 -15 c3 -4 17 -6 31 -3 15 2 25 0 25 -7 0 -6
-11 -11 -25 -11 -16 0 -25 -6 -25 -15 0 -15 -19 -14 -67 1 -20 6 -15 24 10 34
29 12 45 12 51 1z m701 -15 c18 -13 16 -15 -26 -21 -25 -4 -57 -5 -70 -3 -36
5 -19 24 17 20 18 -2 35 1 39 7 8 15 17 14 40 -3z m-947 -33 c4 -26 -10 -30
-27 -9 -7 8 -21 12 -31 9 -14 -4 -20 0 -20 11 0 14 8 17 38 14 30 -2 38 -7 40
-25z m72 11 c0 -10 -7 -14 -22 -12 -32 5 -35 28 -4 28 17 0 26 -5 26 -16z
m1232 -35 c10 -6 15 -16 11 -25 -4 -10 1 -17 15 -21 19 -4 39 -49 28 -60 -2
-3 -17 -6 -33 -6 -34 -2 -47 17 -15 21 38 6 25 17 -52 46 -96 37 -105 54 -28
54 31 0 65 -4 74 -9z m508 -8 c0 -34 -98 -68 -115 -41 -3 6 3 10 14 10 11 0
28 9 38 19 10 10 27 21 38 24 11 2 21 5 23 6 1 0 2 -8 2 -18z m-821 -23 c12
-31 3 -43 -18 -24 -22 20 -44 20 -96 2 -44 -16 -38 -21 40 -30 84 -10 78 -26
-10 -26 -67 0 -82 -3 -102 -22 -13 -12 -23 -28 -23 -35 0 -8 -5 -11 -10 -8 -6
4 -8 11 -4 16 3 6 -3 13 -15 16 -29 8 -26 16 16 49 100 78 205 107 222 62z
m111 2 c11 -11 25 -20 30 -20 6 0 10 -11 10 -25 0 -16 6 -25 16 -25 14 0 74
-51 74 -64 0 -14 -30 -3 -70 25 -32 23 -45 28 -54 19 -8 -9 -5 -16 11 -30 l22
-18 -28 -12 c-42 -17 -105 -9 -109 13 -2 11 3 20 15 23 10 3 26 18 35 34 11
20 22 28 32 24 11 -4 16 0 16 15 0 24 -10 27 -28 9 -9 -9 -12 -9 -12 2 0 7 -7
22 -17 32 -15 17 -15 18 10 18 15 0 36 -9 47 -20z m-767 -82 c-8 -24 -16 -44
-18 -46 -2 -2 -15 4 -29 13 l-26 17 21 27 c20 26 48 42 60 35 4 -2 0 -23 -8
-46z m240 32 c27 -21 62 -26 72 -10 10 17 25 11 25 -10 0 -16 -7 -20 -31 -20
-17 0 -40 -5 -51 -11 -28 -15 -155 -16 -170 -1 -9 9 -8 15 8 26 18 14 18 15 2
21 -37 15 -15 25 51 25 53 0 74 -4 94 -20z m155 8 c-3 -7 -15 -15 -28 -16 -21
-3 -22 -2 -11 12 16 19 44 21 39 4z m827 -48 c12 -20 -5 -28 -34 -17 -17 6
-28 15 -25 19 7 11 52 10 59 -2z m-85 -10 c0 -5 -4 -10 -9 -10 -6 0 -13 5 -16
10 -3 6 1 10 9 10 9 0 16 -4 16 -10z m-1246 -6 c24 -9 19 -24 -7 -24 -13 0
-28 -5 -34 -11 -6 -6 -17 -8 -23 -4 -9 6 -6 13 11 26 27 21 31 22 53 13z
m1604 -50 c24 -18 6 -32 -47 -35 -53 -4 -63 11 -21 30 28 12 29 14 14 26 -16
11 -16 13 2 23 16 9 20 7 27 -10 4 -12 15 -27 25 -34z m-132 11 c-4 -14 -13
-25 -21 -25 -19 0 -19 19 0 26 8 4 15 13 15 22 0 8 3 13 6 9 4 -3 4 -18 0 -32z
m-756 16 c0 -15 -19 -23 -38 -16 -14 5 -14 7 -2 15 19 12 40 13 40 1z m630
-17 c0 -3 -5 -14 -10 -25 -9 -16 -14 -17 -32 -8 -21 11 -21 12 -3 25 19 14 45
19 45 8z m-167 -26 c8 -30 0 -39 -31 -32 -34 8 -53 24 -29 24 10 0 20 7 23 15
9 22 31 18 37 -7z m-1223 -19 c0 -5 -18 -9 -40 -9 -37 0 -55 13 -28 22 18 6
68 -3 68 -13z m1038 -23 c3 -12 -1 -17 -10 -14 -7 3 -15 13 -16 22 -3 12 1 17
10 14 7 -3 15 -13 16 -22z m287 14 c3 -5 -1 -10 -9 -10 -9 0 -16 5 -16 10 0 6
4 10 9 10 6 0 13 -4 16 -10z m370 -16 c36 -24 31 -38 -11 -31 -45 8 -50 12
-34 32 15 19 15 19 45 -1z m143 -2 c3 -9 -6 -12 -35 -8 -21 2 -39 5 -41 5 -2
1 -1 5 2 10 9 14 69 8 74 -7z m-738 -13 c0 -11 -27 -12 -34 0 -3 4 -3 11 0 14
8 8 34 -3 34 -14z m-355 1 c3 -5 21 -10 40 -10 19 0 37 5 40 10 3 6 14 10 23
10 12 0 13 -3 4 -12 -16 -16 -15 -28 3 -28 8 0 15 -4 15 -10 0 -5 -7 -10 -15
-10 -8 0 -15 -7 -15 -15 0 -9 9 -15 21 -15 14 0 19 -5 17 -17 -5 -28 -62 -24
-66 3 -4 27 -50 39 -73 18 -8 -8 -21 -14 -28 -14 -6 0 -22 -12 -34 -26 -15
-17 -28 -23 -40 -19 -21 9 -22 19 -2 35 19 16 19 49 0 56 -8 4 -22 1 -29 -6
-11 -9 -21 -8 -45 5 -17 8 -31 19 -31 24 0 12 38 21 69 15 14 -2 49 0 76 5 28
5 53 9 57 10 4 0 10 -3 13 -9z m742 -9 c11 -11 31 -21 43 -23 13 -1 25 -9 28
-15 6 -19 -47 -16 -55 3 -4 11 -14 14 -34 10 -29 -5 -56 15 -44 34 10 16 39
12 62 -9z m-477 -39 c-1 -19 -19 -34 -35 -29 -9 4 -14 11 -10 16 9 15 -15 24
-30 11 -16 -13 -39 -4 -29 11 13 21 49 27 77 13 15 -8 27 -18 27 -22z m393 19
c6 -25 0 -31 -35 -31 -34 0 -37 21 -5 36 32 16 34 16 40 -5z m-938 -11 c-3 -5
10 -16 30 -24 41 -18 43 -25 11 -55 -21 -20 -30 -22 -80 -16 -49 6 -56 10 -56
29 0 28 -10 39 -24 27 -6 -5 -39 -12 -72 -16 -66 -7 -80 0 -69 35 6 19 13 20
93 16 48 -2 99 -7 113 -11 22 -5 27 -3 32 15 3 13 10 19 16 15 6 -3 9 -10 6
-15z m655 -15 c0 -8 -6 -15 -14 -15 -17 0 -28 14 -19 24 12 12 33 6 33 -9z
m-950 -31 c0 -8 -4 -12 -10 -9 -5 3 -10 10 -10 16 0 5 5 9 10 9 6 0 10 -7 10
-16z m948 -42 c3 -10 -6 -12 -34 -10 -20 2 -39 9 -42 16 -3 10 6 12 34 10 20
-2 39 -9 42 -16z m-1668 -12 c0 -5 -8 -10 -17 -10 -15 0 -16 2 -3 10 19 12 20
12 20 0z m940 -60 c0 -5 -4 -10 -10 -10 -5 0 -10 5 -10 10 0 6 5 10 10 10 6 0
10 -4 10 -10z m1234 -45 c8 -8 27 -15 42 -15 26 0 27 -1 9 -20 -22 -24 -9 -44
43 -66 19 -8 32 -17 29 -20 -3 -4 -46 -7 -94 -8 -76 -1 -88 1 -91 17 -2 12 3
17 20 18 13 0 17 3 11 6 -21 8 -15 30 9 36 35 10 14 19 -49 23 -66 5 -83 9
-83 23 0 23 131 28 154 6z m-238 -41 c30 -13 65 -24 79 -24 22 0 65 -40 65
-61 0 -14 -27 -10 -40 6 -15 18 -61 20 -78 3 -7 -7 -27 -13 -45 -14 -18 0 -48
-8 -67 -17 -41 -21 -71 -22 -64 -3 4 10 -5 13 -36 13 -34 0 -40 -2 -35 -18 10
-31 -17 -34 -40 -5 -17 21 -28 26 -44 21 -12 -3 -19 -11 -16 -16 8 -11 -5 -16
-70 -24 -40 -5 -48 -4 -38 6 12 11 29 16 78 18 21 2 -116 61 -140 61 -8 0 -19
9 -25 20 -13 25 -10 26 85 35 39 4 97 11 130 15 33 3 102 7 153 7 78 1 103 -3
148 -23z m-1272 -26 c19 -10 19 -12 -14 -39 -41 -35 -65 -36 -143 -8 -35 12
-71 19 -87 15 -22 -4 -32 0 -44 19 -19 29 -14 30 53 14 38 -8 46 -7 54 7 8 14
20 16 85 10 41 -4 85 -12 96 -18z m-779 -38 c30 -11 29 -33 -2 -38 -26 -4 -93
23 -93 37 0 14 60 14 95 1z m2526 -23 c-13 -13 -26 -3 -16 12 3 6 11 8 17 5 6
-4 6 -10 -1 -17z m-967 -24 c-9 -38 -12 -39 -31 -20 -13 13 -14 19 -3 31 21
27 41 20 34 -11z m616 -13 c37 -20 36 -21 -50 -24 -30 -2 -63 -6 -73 -11 -11
-4 -23 -3 -30 4 -6 6 -19 11 -29 11 -10 0 -18 5 -18 10 0 6 24 10 53 11 28 1
63 5 77 9 34 11 31 11 70 -10z m-3342 -62 c8 -8 9 -15 1 -25 -13 -15 -73 -18
-64 -3 3 6 -2 10 -12 11 -12 0 -9 5 12 14 38 18 48 18 63 3z m-103 -124 c-23
-17 -85 -19 -85 -3 0 6 9 9 20 6 14 -4 20 0 20 12 0 10 10 23 23 28 18 9 24 7
32 -9 7 -16 5 -23 -10 -34z m-296 -105 c-8 -5 -23 -9 -34 -8 -18 0 -17 1 5 13
26 15 52 10 29 -5z m3568 -71 c-2 -8 -22 -13 -50 -13 -26 -1 -52 -6 -57 -11
-12 -12 7 -12 168 1 88 7 105 6 120 -8 9 -9 27 -25 40 -37 12 -11 22 -28 22
-39 0 -30 28 -47 51 -33 14 9 25 10 40 1 30 -15 16 -23 -47 -25 -40 -1 -54 2
-54 12 0 8 -9 22 -20 31 -11 10 -20 28 -20 41 0 18 -4 23 -16 18 -9 -3 -33 -6
-55 -6 -34 0 -39 -3 -39 -22 0 -22 -3 -23 -113 -25 -61 -1 -138 -7 -169 -14
-75 -15 -90 -10 -78 32 12 42 14 43 47 31 15 -6 22 -11 16 -11 -18 -1 -16 -30
1 -37 8 -3 24 -1 35 6 16 8 19 15 12 28 -5 9 -12 25 -15 36 -5 15 -13 17 -46
12 -21 -3 -41 -2 -44 3 -3 5 16 11 42 14 79 10 115 17 120 22 3 3 30 5 60 5
38 0 52 -4 49 -12z m-512 -38 c9 -15 -17 -22 -71 -18 -46 3 -47 4 -24 15 31
15 87 16 95 3z m-4618 -6 c-3 -3 -12 -4 -19 -1 -8 3 -5 6 6 6 11 1 17 -2 13
-5z m4238 -24 c18 -7 18 -9 3 -15 -24 -10 -71 -2 -76 13 -4 14 41 16 73 2z
m435 -10 c0 -5 -9 -10 -20 -10 -11 0 -20 5 -20 10 0 6 9 10 20 10 11 0 20 -4
20 -10z m631 -36 c11 -14 9 -15 -16 -12 -16 1 -30 9 -33 16 -6 18 33 15 49 -4z
m-5111 -149 c0 -14 -5 -25 -11 -25 -6 0 -26 -7 -45 -16 -19 -9 -37 -14 -40
-11 -10 10 7 47 22 47 8 0 17 7 20 15 4 8 17 15 30 15 19 0 24 -5 24 -25z
m114 6 c10 -15 -22 -33 -44 -26 -20 6 -21 7 -3 21 21 16 39 18 47 5z m-86
-195 c2 -11 -4 -19 -16 -23 -12 -3 -23 -11 -26 -19 -3 -8 -10 -14 -15 -14 -12
0 -4 24 17 58 16 25 35 24 40 -2z m-2309 -71 c31 -7 112 -19 179 -25 121 -10
275 -42 300 -62 6 -6 12 -23 12 -38 0 -15 9 -53 20 -86 12 -32 28 -84 37 -114
9 -30 19 -57 22 -60 3 -3 19 -25 36 -50 16 -25 44 -63 61 -85 18 -22 58 -89
89 -150 32 -60 64 -117 71 -126 21 -23 18 -35 -21 -78 -41 -45 -42 -54 -15
-112 11 -24 20 -65 20 -91 0 -26 5 -50 10 -53 6 -3 10 -17 10 -29 0 -13 7 -29
15 -36 9 -8 15 -29 15 -55 0 -47 27 -105 49 -105 8 0 11 -6 6 -17 -13 -33 -10
-37 30 -43 57 -8 65 -15 58 -54 -6 -39 7 -52 37 -36 26 14 45 4 29 -16 -6 -7
-15 -11 -20 -8 -5 3 -9 -1 -9 -9 0 -8 -28 -44 -62 -80 -59 -61 -113 -97 -145
-97 -19 0 -43 -25 -43 -44 0 -9 -4 -16 -9 -16 -5 0 -22 -11 -38 -23 -15 -13
-40 -27 -56 -31 -15 -3 -37 -16 -49 -28 l-21 -21 -38 44 c-29 33 -38 53 -39
80 0 49 -20 152 -31 164 -5 5 -9 19 -9 31 0 13 -4 26 -10 29 -14 8 -44 114
-42 147 1 14 -5 33 -13 42 -8 8 -18 29 -21 45 -4 19 -23 45 -48 67 -22 20 -48
48 -57 63 -14 22 -21 25 -55 22 -21 -3 -57 -5 -79 -5 l-40 -1 -18 60 c-10 33
-50 123 -88 200 -38 77 -69 144 -69 148 0 4 -37 83 -82 175 -75 152 -82 172
-82 224 1 31 10 83 22 115 11 32 27 87 35 123 24 104 33 120 64 120 14 0 52
-7 82 -15z m1121 -1629 c0 -6 5 -4 10 4 7 11 8 6 4 -16 -4 -23 -2 -33 10 -37
9 -4 16 -15 16 -26 0 -11 5 -23 11 -27 8 -4 4 -13 -12 -25 -13 -10 -18 -19
-11 -19 6 0 12 -6 12 -13 0 -22 44 -40 79 -32 34 7 39 0 16 -25 -23 -26 -4
-70 30 -70 34 0 45 -31 45 -127 0 -72 1 -75 21 -70 38 10 49 -2 43 -44 -4 -25
-3 -39 4 -39 16 0 35 -39 28 -57 -9 -23 -64 35 -68 72 -3 26 -7 30 -30 27 -17
-2 -40 6 -57 19 -19 14 -38 20 -53 16 -13 -3 -41 -10 -63 -16 -31 -8 -45 -7
-61 4 -11 7 -40 19 -65 26 -24 7 -50 19 -57 26 -14 14 -52 18 -52 6 0 -5 -12
-22 -28 -39 -38 -44 -78 -41 -101 6 -16 34 -18 35 -69 32 -34 -2 -52 1 -52 9
0 6 -7 9 -15 6 -13 -6 -55 35 -55 53 0 15 53 22 61 8 10 -14 12 -6 9 34 -1 21
8 33 44 58 25 17 46 35 46 39 0 5 11 12 25 15 14 4 25 11 25 16 0 6 7 10 15
10 9 0 18 7 21 15 8 19 151 127 193 146 17 8 31 21 31 30 0 11 9 17 25 17 14
0 25 -6 25 -12z m75 -36 c3 -5 -1 -10 -10 -10 -9 0 -13 5 -10 10 3 6 8 10 10
10 2 0 7 -4 10 -10z m-415 -596 c0 -16 -16 -19 -25 -4 -8 13 4 32 16 25 5 -4
9 -13 9 -21z m643 -25 c-8 -8 -16 -8 -30 0 -16 9 -14 10 12 11 21 0 26 -3 18
-11z m-633 -32 c23 -6 17 -37 -10 -62 -26 -23 -42 -11 -30 21 13 33 13 34 -5
28 -21 -9 -19 23 3 35 12 7 18 6 20 -4 2 -7 12 -15 22 -18z m197 -44 c3 -32 2
-35 -12 -23 -15 13 -21 51 -8 63 10 11 16 0 20 -40z"/>
<path d="M4905 7330 c3 -5 15 -10 26 -10 11 0 17 5 14 10 -3 6 -15 10 -26 10
-11 0 -17 -4 -14 -10z"/>
<path d="M4727 7264 c-8 -8 3 -34 14 -34 5 0 9 9 9 20 0 19 -11 26 -23 14z"/>
<path d="M4145 7057 c-14 -11 -13 -17 10 -65 14 -28 25 -55 25 -58 0 -18 97
-104 116 -104 12 0 24 -4 26 -9 2 -4 25 -18 52 -30 27 -12 46 -24 43 -27 -9
-10 32 -38 82 -58 24 -9 51 -26 61 -38 17 -22 40 -18 40 7 0 9 6 12 15 9 9 -4
18 2 24 17 5 13 20 35 34 47 14 13 28 36 32 50 3 14 20 39 37 55 25 24 29 34
24 61 -4 18 -18 43 -32 55 -20 17 -24 28 -19 48 4 18 2 24 -7 21 -7 -3 -15
-13 -17 -24 -5 -26 -21 -35 -43 -23 -10 5 -48 14 -85 19 -38 5 -102 16 -143
24 -100 20 -116 20 -101 2 6 -8 37 -17 68 -21 34 -4 71 -17 92 -31 20 -13 40
-24 46 -24 5 0 32 -16 59 -35 27 -19 55 -35 63 -35 7 0 13 -4 13 -9 0 -15 -85
-24 -155 -18 -67 6 -96 17 -164 59 -25 16 -55 28 -68 28 -13 0 -23 5 -23 10 0
6 -12 22 -26 35 -31 29 -23 49 16 40 16 -3 31 -2 35 4 3 6 -2 11 -13 11 -10 0
-22 3 -26 7 -12 12 -74 12 -91 0z"/>
<path d="M3305 6839 c-9 -14 -2 -20 14 -10 8 6 9 11 3 15 -6 3 -14 1 -17 -5z"/>
<path d="M4020 5400 c0 -5 7 -10 15 -10 8 0 15 5 15 10 0 6 -7 10 -15 10 -8 0
-15 -4 -15 -10z"/>
<path d="M3965 5390 c-3 -5 1 -10 9 -10 9 0 16 5 16 10 0 6 -4 10 -9 10 -6 0
-13 -4 -16 -10z"/>
<path d="M3524 4962 c-32 -42 -78 -98 -102 -124 -45 -49 -49 -72 -15 -85 9 -4
49 -28 88 -53 92 -61 113 -72 119 -61 3 4 -35 35 -84 67 -49 33 -89 66 -90 74
0 8 35 57 77 107 l77 93 26 -17 c14 -9 39 -24 55 -32 17 -8 43 -25 58 -38 31
-25 67 -31 67 -9 0 16 -45 66 -60 66 -7 0 -24 8 -38 18 -15 10 -48 30 -74 45
l-46 27 -58 -78z"/>
<path d="M3590 4860 c-18 -16 -36 -27 -40 -25 -16 10 -42 -34 -36 -61 6 -23
11 -26 38 -22 26 4 36 0 56 -23 23 -28 52 -39 52 -19 0 5 14 31 30 57 35 55
37 76 10 103 -29 29 -71 25 -110 -10z"/>
<path d="M4517 3283 c-4 -3 -7 -11 -7 -17 0 -6 5 -5 12 2 6 6 9 14 7 17 -3 3
-9 2 -12 -2z"/>
<path d="M4458 3253 c7 -3 16 -2 19 1 4 3 -2 6 -13 5 -11 0 -14 -3 -6 -6z"/>
<path d="M3830 2860 c0 -5 7 -10 15 -10 8 0 15 5 15 10 0 6 -7 10 -15 10 -8 0
-15 -4 -15 -10z"/>
<path d="M3386 2708 c8 -50 19 -68 44 -68 28 0 43 25 35 60 -7 32 -9 34 -58
44 -27 6 -27 6 -21 -36z"/>
<path d="M7850 4050 c0 -5 7 -10 15 -10 8 0 15 5 15 10 0 6 -7 10 -15 10 -8 0
-15 -4 -15 -10z"/>
<path d="M8435 3260 c3 -5 11 -10 16 -10 6 0 7 5 4 10 -3 6 -11 10 -16 10 -6
0 -7 -4 -4 -10z"/>
</g>
</svg>
